<mxfile host="app.diagrams.net" agent="Mozilla/5.0 (Windows NT 10.0; Win64; x64) AppleWebKit/537.36 (KHTML, like Gecko) Chrome/140.0.0.0 Safari/537.36" version="28.2.5">
  <diagram name="Página-1" id="E9wpiLssrL1ntJn4qid6">
    <mxGraphModel dx="872" dy="439" grid="1" gridSize="10" guides="1" tooltips="1" connect="1" arrows="1" fold="1" page="1" pageScale="1" pageWidth="827" pageHeight="1169" math="0" shadow="0">
      <root>
        <mxCell id="0" />
        <mxCell id="1" parent="0" />
        <mxCell id="uSVzAK2_b06TMfIjgcno-5" value="" style="edgeStyle=orthogonalEdgeStyle;rounded=0;orthogonalLoop=1;jettySize=auto;html=1;" edge="1" parent="1" source="uSVzAK2_b06TMfIjgcno-1" target="uSVzAK2_b06TMfIjgcno-4">
          <mxGeometry relative="1" as="geometry" />
        </mxCell>
        <mxCell id="uSVzAK2_b06TMfIjgcno-1" value="" style="ellipse;whiteSpace=wrap;html=1;aspect=fixed;" vertex="1" parent="1">
          <mxGeometry x="374" y="20" width="40" height="40" as="geometry" />
        </mxCell>
        <mxCell id="uSVzAK2_b06TMfIjgcno-7" value="" style="edgeStyle=orthogonalEdgeStyle;rounded=0;orthogonalLoop=1;jettySize=auto;html=1;" edge="1" parent="1" source="uSVzAK2_b06TMfIjgcno-4" target="uSVzAK2_b06TMfIjgcno-6">
          <mxGeometry relative="1" as="geometry" />
        </mxCell>
        <mxCell id="uSVzAK2_b06TMfIjgcno-9" value="" style="edgeStyle=orthogonalEdgeStyle;rounded=0;orthogonalLoop=1;jettySize=auto;html=1;" edge="1" parent="1" source="uSVzAK2_b06TMfIjgcno-4" target="uSVzAK2_b06TMfIjgcno-8">
          <mxGeometry relative="1" as="geometry" />
        </mxCell>
        <mxCell id="uSVzAK2_b06TMfIjgcno-4" value="Atividade: Refinamento de requisitos&lt;div&gt;Resposável: Analista de Sistema&lt;br&gt;&lt;/div&gt;&lt;div&gt;Artefatos: Documento de Requisitos Detalhado, Casos de Usos&lt;/div&gt;" style="rounded=1;whiteSpace=wrap;html=1;" vertex="1" parent="1">
          <mxGeometry x="221" y="110" width="346" height="60" as="geometry" />
        </mxCell>
        <mxCell id="uSVzAK2_b06TMfIjgcno-11" value="" style="edgeStyle=orthogonalEdgeStyle;rounded=0;orthogonalLoop=1;jettySize=auto;html=1;" edge="1" parent="1" source="uSVzAK2_b06TMfIjgcno-6" target="uSVzAK2_b06TMfIjgcno-10">
          <mxGeometry relative="1" as="geometry" />
        </mxCell>
        <mxCell id="uSVzAK2_b06TMfIjgcno-6" value="Atividade: Definição da arquitetura do sistema&lt;div&gt;Resposável: Arquiteto de Software&lt;/div&gt;&lt;div&gt;Artefatos: Documento de Arquitetura, Diagramas UML&lt;/div&gt;" style="rounded=1;whiteSpace=wrap;html=1;" vertex="1" parent="1">
          <mxGeometry x="64" y="220" width="310" height="60" as="geometry" />
        </mxCell>
        <mxCell id="uSVzAK2_b06TMfIjgcno-14" value="" style="edgeStyle=orthogonalEdgeStyle;rounded=0;orthogonalLoop=1;jettySize=auto;html=1;" edge="1" parent="1" source="uSVzAK2_b06TMfIjgcno-8" target="uSVzAK2_b06TMfIjgcno-13">
          <mxGeometry relative="1" as="geometry" />
        </mxCell>
        <mxCell id="uSVzAK2_b06TMfIjgcno-8" value="Ativadade: Criação de protótipos funcionais&lt;div&gt;Resposáveis: Desenvolvedor, UI/UX Designer&lt;/div&gt;&lt;div&gt;Artefatos: Protótipos, Mockups&lt;/div&gt;" style="rounded=1;whiteSpace=wrap;html=1;" vertex="1" parent="1">
          <mxGeometry x="430" y="220" width="280" height="60" as="geometry" />
        </mxCell>
        <mxCell id="uSVzAK2_b06TMfIjgcno-10" value="Atividade: Planejamento detalhado do projeto&lt;div&gt;Resposável: Gerente de Projetos&lt;/div&gt;&lt;div&gt;Artefatos: Plano de Projeto atualizado&lt;/div&gt;" style="rounded=1;whiteSpace=wrap;html=1;" vertex="1" parent="1">
          <mxGeometry x="108.25" y="370" width="221.5" height="70" as="geometry" />
        </mxCell>
        <mxCell id="uSVzAK2_b06TMfIjgcno-13" value="Atividade: Definição do Ambiente de desenvolvimento&lt;div&gt;Resposável: DevOps&lt;/div&gt;&lt;div&gt;Artefatos: Documentação de Ambiente, Scripts de Configuração&lt;/div&gt;" style="rounded=1;whiteSpace=wrap;html=1;" vertex="1" parent="1">
          <mxGeometry x="405" y="370" width="330" height="70" as="geometry" />
        </mxCell>
      </root>
    </mxGraphModel>
  </diagram>
</mxfile>
